# xmcd CD database file
#
# Track frame offsets:
#	150
#	19192
#	34347
#	55479
#	70042
#	87120
#	99231
#	114449
#	132899
#	149914
#	164282
#	180642
#	198312
#	217340
#
# Disc length: 3113 seconds
#
# Revision: 1
# Processed by: cddbd v1.5.1PL0 Copyright (c) Steve Scherf et al.
# Submitted via: jetAudio 5
#
DISCID=ce0c270e
DTITLE=Nenito Sarturi e Anelise Severvo - Caminheiros
DYEAR=1900
DGENRE=
TTITLE0=Partida
TTITLE1=Pra o Nosso Amor
TTITLE2=Caminheiros
TTITLE3=Amor de Prosa e Mate
TTITLE4=Caminhada
TTITLE5=Louca Paixão
TTITLE6=Primavera de Sonhos
TTITLE7=O Meu Amor
TTITLE8=Chegadas e Partidas
TTITLE9=Camino de Vuelta
TTITLE10=Gerações em Canto
TTITLE11=Quando Estás Distante
TTITLE12=Nas Janelas dos Meus Olhos
TTITLE13=No Encanto da Gruta
EXTD=Música Nativista do Rio Grande do Sul - Brasil
EXTT0=Música Nativista do Rio Grande do Sul - Brasil
EXTT1=Música Nativista do Rio Grande do Sul - Brasil
EXTT2=Música Nativista do Rio Grande do Sul - Brasil
EXTT3=Música Nativista do Rio Grande do Sul - Brasil
EXTT4=Música Nativista do Rio Grande do Sul - Brasil
EXTT5=Música Nativista do Rio Grande do Sul - Brasil
EXTT6=Música Nativista do Rio Grande do Sul - Brasil
EXTT7=Música Nativista do Rio Grande do Sul - Brasil
EXTT8=Música Nativista do Rio Grande do Sul - Brasil
EXTT9=Música Nativista do Rio Grande do Sul - Brasil
EXTT10=Música Nativista do Rio Grande do Sul - Brasil
EXTT11=Música Nativista do Rio Grande do Sul - Brasil
EXTT12=Música Nativista do Rio Grande do Sul - Brasil
EXTT13=Música Nativista do Rio Grande do Sul - Brasil
PLAYORDER=
